<svg width="1749" height="540" viewBox="0 0 1749 540" fill="none" xmlns="http://www.w3.org/2000/svg">
<g clip-path="url(#clip0_137_10199)">
<g clip-path="url(#clip1_137_10199)">
<g opacity="0.5">
<path d="M264.085 11.247C258.56 4.10124 250.206 0 241.164 0H241.159C234.722 0 228.613 2.08836 223.501 6.04367L180.46 39.2914L179.725 39.855L181.814 39.2914L267.759 16.0074L264.08 11.247H264.085ZM42.6736 145.732L11.474 169.837C-1.1468 179.589 -3.48677 197.801 6.26563 210.421L89.3321 317.944L42.6736 145.732ZM510.014 329.579L426.947 222.056L473.601 394.273L504.805 370.163C517.426 360.411 519.766 342.204 510.014 329.579ZM334.445 500.714L248.521 523.993L252.199 528.758C257.725 535.904 266.078 540 275.126 540C281.562 540 287.671 537.912 292.784 533.961L335.824 500.714H334.45H334.445Z" fill="white"/>
</g>
<g opacity="0.8">
<path d="M91.3397 76.832C91.3095 77.4711 91.2944 78.1152 91.2944 78.7594V277.098L53.4473 137.41L51.6659 130.843L49.8895 124.276L48.3144 118.468C44.1377 103.07 53.2762 87.148 68.6697 82.9763L91.3347 76.832H91.3397Z" fill="white"/>
<path d="M364.396 39.2948H229.9L276.076 26.7848L282.643 25.0034L289.215 23.222L327.273 12.911C329.764 12.2367 332.321 11.8945 334.862 11.8945C347.88 11.8945 359.349 20.6858 362.76 33.2713L364.391 39.2948H364.396Z" fill="white"/>
<path d="M286.365 500.723L240.205 513.228L233.638 515.009L227.071 516.79L189.012 527.101C186.521 527.776 183.965 528.118 181.423 528.118C168.405 528.118 156.937 519.332 153.525 506.746L151.895 500.723H286.37H286.365Z" fill="white"/>
<path d="M447.61 457.031L424.945 463.175C424.976 462.536 424.991 461.897 424.991 461.253V262.914L462.833 402.598L464.614 409.165L466.396 415.737L467.971 421.544C472.147 436.943 463.009 452.859 447.615 457.031H447.61Z" fill="white"/>
</g>
<path d="M385.521 51.8672H130.761C124.501 51.8672 118.729 54.021 114.15 57.624C111.246 59.9137 108.821 62.7871 107.06 66.063C105.857 68.3023 104.961 70.7279 104.433 73.2842C104.06 75.0505 103.869 76.8822 103.869 78.7592V461.252C103.869 476.081 115.931 488.144 130.761 488.144H385.521C391.786 488.144 397.563 485.985 402.143 482.377C405.041 480.092 407.462 477.219 409.223 473.948C410.426 471.708 411.321 469.278 411.855 466.721C412.222 464.955 412.413 463.124 412.413 461.252V78.7592C412.413 63.9294 400.351 51.8672 385.521 51.8672ZM239.371 144.067C243.201 144.067 246.864 144.913 250.276 146.578C250.925 146.991 251.609 147.358 252.309 147.67C254.256 148.536 256.335 148.979 258.488 148.979C260.642 148.979 262.69 148.546 264.628 147.69C265.352 147.373 266.062 146.991 266.736 146.558C270.133 144.902 273.786 144.067 277.601 144.067C291.329 144.067 302.495 155.234 302.495 168.966C302.495 170.033 302.43 171.1 302.294 172.137V172.157C302.284 172.247 302.269 172.343 302.258 172.434V172.454C301.187 180.158 298.323 187.651 293.976 194.112C289.708 200.453 283.987 205.857 277.425 209.757C277.344 209.808 277.274 209.848 277.208 209.888L277.183 209.898C273.952 211.821 270.998 214.166 268.392 216.868H268.382L267.828 217.467C263.697 221.92 260.642 227.088 258.745 232.83C258.655 233.102 258.569 233.343 258.488 233.545C258.428 233.379 258.363 233.192 258.292 232.976C256.425 227.254 253.265 221.89 249.154 217.457C246.396 214.483 243.226 211.921 239.738 209.858C239.703 209.838 239.668 209.818 239.628 209.798C226.448 201.988 217.461 188.894 214.96 173.853C214.955 173.833 214.955 173.807 214.95 173.782C214.784 172.791 214.653 171.805 214.552 170.848C214.507 170.229 214.482 169.595 214.482 168.966C214.482 155.234 225.653 144.067 239.381 144.067H239.371ZM154.624 234.455C155.676 230.792 157.492 227.516 160.013 224.703C160.617 224.175 161.181 223.596 161.684 222.987C163.043 221.362 164.029 219.495 164.613 217.442C165.207 215.373 165.358 213.25 165.061 211.141C164.96 210.386 164.794 209.627 164.573 208.887C163.913 205.153 164.11 201.394 165.166 197.715C166.686 192.411 169.826 187.877 174.239 184.596C178.517 181.421 183.785 179.67 189.084 179.67C191.399 179.67 193.714 179.997 195.958 180.646C196.562 180.817 197.166 181.014 197.75 181.23C198.625 181.582 199.521 181.975 200.412 182.397L200.462 182.423L200.543 182.458C214.301 189.005 224.405 201.258 228.28 216.073C228.29 216.113 228.3 216.153 228.31 216.194C229.337 220.119 230.922 223.863 233.026 227.34C236.151 232.513 240.433 237.027 245.42 240.398C245.606 240.524 245.767 240.64 245.913 240.751C245.692 240.771 245.44 240.786 245.153 240.796C239.109 241.038 233.302 242.552 227.878 245.295L227.178 245.647V245.662C223.842 247.423 220.772 249.622 218.03 252.199L218.014 252.214C217.954 252.269 217.894 252.33 217.833 252.385C213.078 256.864 207.598 260.361 201.534 262.792C195.4 265.247 188.959 266.495 182.387 266.495C179.966 266.495 177.52 266.324 175.125 265.977H175.105C175.009 265.962 174.919 265.952 174.828 265.937H174.808C173.771 265.776 172.73 265.544 171.703 265.252C158.509 261.463 150.85 247.65 154.629 234.45L154.624 234.455ZM191.143 324.059C187.419 323.4 183.977 321.925 180.892 319.686C169.786 311.619 167.315 296.014 175.382 284.908C176.006 284.048 176.69 283.222 177.41 282.463L177.42 282.448C177.485 282.377 177.551 282.312 177.616 282.246L177.631 282.231C182.527 277.133 188.309 273.173 194.836 270.446C201.207 267.774 207.95 266.42 214.869 266.42C216.46 266.42 218.065 266.495 219.645 266.641C219.741 266.651 219.816 266.656 219.891 266.667H219.922C221.195 266.787 222.488 266.848 223.766 266.848C226.227 266.848 228.693 266.626 231.113 266.199L231.123 266.209L231.939 266.048C237.902 264.87 243.412 262.485 248.318 258.957C248.555 258.791 248.761 258.65 248.947 258.529C248.902 258.701 248.842 258.892 248.776 259.108C246.919 264.835 246.326 271.029 247.045 277.038C247.528 281.064 248.59 284.994 250.195 288.718C250.215 288.753 250.231 288.793 250.251 288.833C256.325 302.898 255.897 318.78 249.083 332.412C249.068 332.437 249.058 332.457 249.048 332.478C248.595 333.378 248.122 334.259 247.644 335.084C247.317 335.613 246.965 336.141 246.592 336.649C241.922 343.075 234.384 346.915 226.428 346.915C221.15 346.915 216.102 345.269 211.82 342.155C208.72 339.905 206.249 337.067 204.473 333.721C204.191 333.001 203.854 332.301 203.471 331.637C202.405 329.79 200.98 328.21 199.234 326.947C197.508 325.694 195.586 324.829 193.513 324.381C192.738 324.21 191.943 324.104 191.143 324.059ZM209.872 406.441L206.128 407.91V407.935C205.298 408.197 204.423 408.313 203.522 408.313C202.077 408.313 200.653 407.961 199.4 407.321C196.27 405.661 194.424 402.46 194.59 398.963C194.756 395.526 196.839 392.542 200.065 391.218C200.442 391.078 201.222 390.841 201.861 390.625L202.525 390.413C202.953 390.293 203.643 390.056 203.995 389.94C204.704 389.679 205.701 389.326 206.224 389.135C220.339 383.756 232.864 373.998 241.555 361.684C243.261 359.294 244.967 356.521 246.623 353.492L247.906 350.961L248.756 349.134C248.993 348.591 249.254 348.047 249.466 347.499C251.242 345.939 252.832 344.162 254.251 342.215C254.775 341.505 255.248 340.796 255.701 340.061L255.841 339.825C256.41 338.828 256.979 337.787 257.547 336.649C257.829 336.055 258.116 335.487 258.398 334.898C258.614 335.416 258.871 335.915 259.107 336.413L259.299 336.79C259.822 337.832 260.365 338.853 260.934 339.825L261.03 339.966C256.954 368.694 236.85 394.791 209.877 406.441H209.872ZM335.874 319.686C332.789 321.925 329.347 323.4 325.628 324.059C324.823 324.104 324.028 324.21 323.253 324.381C321.185 324.829 319.257 325.694 317.531 326.947C315.79 328.21 314.366 329.79 313.294 331.642C312.912 332.301 312.574 333.001 312.298 333.721C310.516 337.072 308.04 339.91 304.951 342.155C300.663 345.269 295.616 346.915 290.337 346.915C282.381 346.915 274.843 343.075 270.173 336.649C269.806 336.141 269.449 335.613 269.127 335.084H269.121C268.653 334.274 268.191 333.414 267.748 332.533L267.728 332.483L267.677 332.397C260.874 318.765 260.451 302.893 266.52 288.833C266.535 288.793 266.555 288.753 266.57 288.718C268.18 284.994 269.237 281.064 269.72 277.033C270.445 271.029 269.846 264.835 267.994 259.108C267.924 258.892 267.868 258.701 267.818 258.529C268.004 258.65 268.211 258.791 268.447 258.957C273.359 262.49 278.864 264.875 284.827 266.048L285.607 266.199H285.617C288.053 266.626 290.533 266.848 292.999 266.848C294.277 266.848 295.571 266.787 296.844 266.672H296.874C296.95 266.656 297.03 266.651 297.106 266.646C298.701 266.495 300.311 266.42 301.896 266.42C308.815 266.42 315.559 267.774 321.934 270.446C328.451 273.173 334.243 277.133 339.139 282.231L339.155 282.246C339.22 282.312 339.28 282.377 339.346 282.448L339.361 282.463C340.075 283.222 340.76 284.048 341.384 284.908C349.455 296.014 346.985 311.619 335.874 319.686ZM359.983 253.387C356.757 259.209 351.463 263.416 345.067 265.252C344.041 265.544 342.999 265.776 341.963 265.932H341.942C341.852 265.952 341.761 265.962 341.666 265.977H341.645C339.245 266.324 336.799 266.495 334.389 266.495C327.812 266.495 321.371 265.247 315.237 262.792C309.173 260.361 303.693 256.859 298.947 252.395C298.877 252.33 298.816 252.269 298.761 252.214L298.746 252.199C296.014 249.633 292.954 247.438 289.643 245.682V245.672L288.893 245.295C283.468 242.552 277.661 241.038 271.617 240.796C271.331 240.786 271.079 240.771 270.858 240.751C271.004 240.64 271.165 240.524 271.351 240.398C276.338 237.027 280.62 232.513 283.75 227.335C285.848 223.863 287.439 220.119 288.46 216.194C288.475 216.153 288.485 216.113 288.495 216.073C292.365 201.248 302.475 189 316.243 182.453C316.263 182.443 316.288 182.428 316.308 182.417C317.219 181.99 318.13 181.587 319.021 181.23C319.604 181.014 320.208 180.817 320.812 180.646C323.062 179.997 325.376 179.67 327.686 179.67C332.985 179.67 338.254 181.421 342.531 184.596C346.949 187.877 350.084 192.411 351.604 197.715C352.661 201.394 352.862 205.153 352.198 208.887C351.982 209.627 351.816 210.386 351.71 211.146C351.413 213.255 351.564 215.378 352.158 217.442C352.747 219.495 353.733 221.362 355.087 222.987C355.59 223.596 356.153 224.175 356.757 224.703C359.283 227.516 361.095 230.797 362.147 234.455C363.978 240.846 363.214 247.574 359.988 253.387H359.983Z" fill="white"/>
</g>
<path d="M1745.5 40.7039L1668.62 172.223V240.655C1668.62 251.347 1662.92 257.407 1651.89 257.407H1622.71C1612.03 257.407 1606.33 251.347 1606.33 240.655V172.937L1526.95 40.7039C1520.9 30.7258 1528.38 25.7305 1539.06 25.7305H1569.31C1579.99 25.7305 1587.82 30.7258 1594.23 42.4818L1638.01 118.752L1680.01 42.4818C1686.06 30.3627 1693.89 25.7305 1704.57 25.7305H1733.05C1743.72 25.7305 1751.55 30.3627 1745.5 40.7039Z" fill="white"/>
<path d="M1511.29 255.98C1500.25 261.325 1493.84 261.676 1485.31 261.676C1469.64 261.676 1455.76 257.044 1446.15 248.13C1435.47 238.151 1422.31 218.546 1413.04 205.362L1386.7 168.655L1373.17 183.979V240.655C1373.17 251.347 1367.12 257.407 1356.44 257.407H1327.26C1316.58 257.407 1310.53 251.347 1310.53 240.655V42.4818C1310.53 31.79 1316.58 25.7305 1327.26 25.7305H1356.44C1367.12 25.7305 1373.17 31.79 1373.17 42.4818V115.196L1434.75 42.1312C1442.57 32.153 1447.91 25.7305 1458.95 25.7305H1499.17C1510.21 25.7305 1515.9 32.8542 1507.71 42.4818L1431.89 131.947L1470.34 186.12C1481.38 201.444 1485.64 205.012 1489.21 205.726C1491.34 206.089 1494.19 206.089 1498.46 205.012C1506.28 202.871 1509.85 205.726 1512.34 214.99L1518.39 238.164C1521.59 248.856 1516.96 252.774 1511.27 255.98H1511.29Z" fill="white"/>
<path d="M1058.89 141.559C1058.89 72.7759 1114.07 21.4453 1185.96 21.4453C1220.47 21.4453 1251.44 34.278 1273.16 56.0122C1280.99 63.4989 1280.99 72.7634 1273.16 79.5366L1255.01 94.8606C1247.18 101.634 1239.7 101.271 1231.51 94.5101C1219.06 84.1689 1203.4 77.7588 1185.96 77.7588C1150.36 77.7588 1122.61 104.488 1122.61 141.559C1122.61 178.63 1150.37 205.359 1185.96 205.359C1203.4 205.359 1219.41 198.937 1231.51 188.608C1239.7 181.835 1247.18 181.484 1255.01 188.245L1273.16 203.569C1280.99 210.342 1280.99 219.607 1273.16 227.093C1251.44 248.84 1220.49 261.66 1185.24 261.66C1114.05 261.66 1058.89 210.342 1058.89 141.546V141.559Z" fill="white"/>
<path d="M807.26 151.548V42.4896C807.26 31.7978 812.961 25.7383 823.988 25.7383H853.169C863.846 25.7383 869.897 31.7978 869.897 42.4896V155.117C869.897 185.414 888.764 206.084 917.232 206.084C945.7 206.084 964.566 185.414 964.566 155.117V42.4896C964.566 31.7978 970.617 25.7383 981.294 25.7383H1009.78C1020.45 25.7383 1026.15 31.7978 1026.15 42.4896V151.548C1026.15 217.84 982.37 261.684 917.244 261.684C852.119 261.684 807.26 217.84 807.26 151.548Z" fill="white"/>
<path d="M636.05 240.655V42.4818C636.05 31.79 642.101 25.7305 652.778 25.7305H681.959C692.636 25.7305 698.687 31.79 698.687 42.4818V206.439H774.852C785.892 206.439 791.581 212.499 791.581 223.191V240.655C791.581 251.71 785.879 257.407 774.852 257.407H652.765C642.088 257.407 636.037 251.71 636.037 240.655H636.05Z" fill="white"/>
<g opacity="0.5">
<path d="M1577.32 488.214C1569.82 481.365 1567.86 473.854 1574.71 466.356L1586.13 452.647C1592.65 445.148 1600.16 443.511 1607.66 450.035C1620.71 461.132 1642.24 470.593 1659.21 470.593C1677.81 470.593 1689.56 463.744 1689.56 453.297C1689.56 438.287 1671.61 436.65 1647.79 429.477C1617.12 420.342 1579.93 403.371 1579.93 362.592C1579.93 324.751 1613.86 298.645 1662.47 298.645C1691.84 298.645 1716.96 308.43 1734.26 322.139C1742.09 328.663 1744.69 335.836 1737.84 343.672L1726.75 357.381C1720.55 364.879 1713.38 366.191 1705.21 359.993C1694.78 351.832 1680.42 344.009 1663.45 344.009C1648.44 344.009 1638.66 350.208 1638.66 359.993C1638.66 372.065 1653.99 377.614 1669.97 382.5C1706.19 393.598 1748.28 405.345 1748.28 452.972C1748.28 495.712 1709.13 518.557 1662.47 518.557C1627.89 518.557 1596.89 506.809 1577.32 488.214Z" fill="white"/>
<path d="M1345.02 499.313V317.904C1345.02 308.119 1350.57 302.57 1360.35 302.57H1440.95C1509.79 302.57 1552.53 344.986 1552.53 408.284C1552.53 471.581 1509.79 514.647 1440.95 514.647H1360.35C1350.57 514.647 1345.02 509.098 1345.02 499.313ZM1438.66 467.995C1471.29 467.995 1494.45 446.137 1494.45 408.608C1494.45 371.08 1471.28 349.235 1438.66 349.235H1402.44V467.995H1438.66Z" fill="white"/>
<path d="M1300.33 317.909V497.68C1300.33 511.052 1291.2 516.276 1280.1 516.276H1276.84C1266.39 516.276 1259.22 511.052 1251.06 501.267L1163.29 398.165V499.305C1163.29 509.09 1157.74 514.638 1147.96 514.638H1121.2C1111.41 514.638 1105.87 509.09 1105.87 499.305V319.533C1105.87 306.161 1115.33 300.938 1126.42 300.938H1129.68C1140.12 300.938 1147.31 306.161 1155.45 315.947L1243.22 419.048V317.909C1243.22 308.123 1248.77 302.575 1258.56 302.575H1285.31C1295.1 302.575 1300.32 308.123 1300.32 317.909H1300.33Z" fill="white"/>
<path d="M1068.02 514.644H1033.11C1023 514.644 1021.03 509.42 1017.12 499.31L1009.29 479.739H925.757L917.596 499.31C913.685 509.42 912.048 514.644 901.937 514.644H868.982C858.872 514.644 853.648 509.095 858.21 499.31L945.652 315.29C950.214 305.829 957.075 300.605 966.86 300.605H970.447C980.232 300.605 986.755 305.829 991.329 315.29L1078.77 499.31C1083.33 509.095 1078.12 514.644 1068 514.644H1068.02ZM994.291 441.236L968.51 375.988L941.428 441.236H994.279H994.291Z" fill="white"/>
<path d="M636.037 499.313V317.904C636.037 308.119 641.586 302.57 651.371 302.57H678.127C687.913 302.57 693.461 308.119 693.461 317.904V385.439H774.055V317.904C774.055 308.119 779.279 302.57 789.064 302.57H816.146C825.931 302.57 831.155 308.119 831.155 317.904V499.313C831.155 509.098 825.931 514.647 816.146 514.647H789.064C779.279 514.647 774.055 509.098 774.055 499.313V432.103H693.461V499.313C693.461 509.098 687.913 514.647 678.127 514.647H651.371C641.586 514.647 636.037 509.098 636.037 499.313Z" fill="white"/>
</g>
</g>
<defs>
<clipPath id="clip0_137_10199">
<rect width="1748.04" height="540" fill="white" transform="translate(0.242188)"/>
</clipPath>
<clipPath id="clip1_137_10199">
<rect width="515.795" height="540" fill="white" transform="translate(0.242188)"/>
</clipPath>
</defs>
</svg>
